<?xml version="1.0" encoding="UTF-8" standalone="no" ?>
<!DOCTYPE svg PUBLIC "-//W3C//DTD SVG 1.1//EN" "http://www.w3.org/Graphics/SVG/1.1/DTD/svg11.dtd">
<svg xmlns="http://www.w3.org/2000/svg" xmlns:xlink="http://www.w3.org/1999/xlink" version="1.1" width="700" height="700" viewBox="0 0 700 700" xml:space="preserve"><desc>我的作品 2026/4/22 15:41:04</desc>

<defs>
</defs>
<g transform="matrix(1.75 0 0 1.68 349.82 357.62)" id="group-1"  >
<g style=""   >
		<g transform="matrix(0.08 0 0 -0.08 79.32 -1.85)" id="obj-2"  >
<path style="stroke: none; stroke-width: 1; stroke-dasharray: none; stroke-linecap: butt; stroke-dashoffset: 0; stroke-linejoin: miter; stroke-miterlimit: 4; fill: rgb(0,123,255); fill-rule: nonzero; opacity: 1;"  transform=" translate(-5001.03, -3998.23)" d="M 4820 5509 C 4462 5484 4132 5343 3910 5120 C 3778 4989 3670 4812 3601 4617 C 3564 4510 3563 4496 3595 4465 C 3624 4435 3678 4432 3707 4458 C 3718 4467 3741 4516 3760 4565 C 3828 4750 3911 4884 4034 5004 C 4331 5296 4823 5417 5250 5303 C 5620 5204 5935 4951 6108 4613 C 6341 4157 6300 3617 6002 3205 L 5944 3125 L 6064 2977 C 6234 2768 6236 2765 6202 2724 C 6169 2684 6151 2682 5878 2679 L 5611 2676 L 5588 2705 C 5575 2721 5556 2745 5544 2759 L 5524 2783 L 5455 2755 C 5162 2638 4879 2619 4591 2696 C 4540 2710 4473 2732 4443 2746 C 4369 2778 4327 2778 4301 2744 C 4273 2708 4274 2659 4303 2633 C 4349 2590 4470 2548 4655 2509 C 4822 2474 5059 2476 5230 2512 C 5299 2527 5382 2548 5414 2560 L 5474 2580 L 5503 2545 L 5532 2509 L 5864 2512 C 6181 2515 6197 2516 6235 2537 C 6331 2588 6384 2674 6382 2773 C 6380 2846 6370 2864 6259 3002 C 6209 3064 6166 3120 6163 3127 C 6161 3133 6176 3164 6198 3197 C 6335 3398 6429 3724 6430 3996 C 6430 4077 6408 4262 6389 4335 C 6364 4431 6314 4572 6275 4655 C 6011 5208 5425 5552 4820 5509 z" stroke-linecap="round" />
</g>
		<g transform="matrix(0.08 0 0 -0.08 81.6 -17.48)" id="obj-4"  >
<path style="stroke: none; stroke-width: 1; stroke-dasharray: none; stroke-linecap: butt; stroke-dashoffset: 0; stroke-linejoin: miter; stroke-miterlimit: 4; fill: rgb(0,148,253); fill-rule: nonzero; opacity: 1;"  transform=" translate(-5012.5, -4207.55)" d="M 4739 4820 C 4534 4777 4279 4609 4280 4517 C 4281 4481 4294 4459 4328 4441 C 4362 4423 4402 4436 4441 4477 C 4487 4525 4609 4604 4676 4629 C 4751 4658 4883 4678 4955 4673 C 5187 4657 5402 4517 5509 4311 C 5566 4200 5584 4126 5583 3995 C 5583 3899 5579 3874 5552 3795 L 5521 3705 L 5585 3641 L 5649 3576 L 5675 3636 C 5732 3765 5745 3832 5745 4005 C 5745 4159 5743 4168 5712 4260 C 5569 4675 5162 4910 4739 4820 z" stroke-linecap="round" />
</g>
		<g transform="matrix(0.08 0 0 -0.08 -49.82 -0.97)" id="obj-3"  >
<path style="stroke: none; stroke-width: 1; stroke-dasharray: none; stroke-linecap: butt; stroke-dashoffset: 0; stroke-linejoin: miter; stroke-miterlimit: 4; fill: rgb(3,181,251); fill-rule: nonzero; opacity: 1;"  transform=" translate(-3413.3, -3993.94)" d="M 2898 5500 C 2632 5458 2378 5353 2175 5201 C 2088 5135 1934 4977 1867 4883 C 1734 4696 1628 4440 1601 4240 C 1573 4024 1568 3953 1579 3932 C 1585 3921 1590 3890 1590 3863 C 1590 3717 1660 3473 1754 3294 C 1901 3012 2132 2786 2415 2646 C 2558 2576 2640 2547 2791 2515 C 3026 2465 3242 2470 3494 2531 C 3873 2624 4201 2865 4402 3200 C 4430 3247 4454 3286 4455 3288 C 4456 3289 4497 3270 4546 3245 C 4595 3220 4671 3190 4715 3178 C 4877 3136 5158 3155 5227 3214 C 5284 3264 5240 3368 5166 3357 C 5149 3355 5106 3345 5070 3335 C 4919 3294 4667 3343 4552 3437 L 4529 3455 L 4555 3545 C 4599 3697 4619 3841 4622 4031 L 4625 4205 L 3890 4205 L 3155 4205 L 3155 3886 L 3155 3567 L 3377 3566 C 3499 3565 3602 3561 3607 3557 C 3618 3545 3504 3439 3439 3402 C 3303 3325 3096 3297 2945 3335 C 2643 3411 2426 3687 2426 3995 C 2426 4105 2447 4188 2500 4295 C 2602 4504 2795 4640 3028 4669 C 3106 4679 3148 4675 3310 4643 C 3351 4635 3390 4673 3390 4721 C 3390 4783 3362 4804 3254 4824 C 2961 4878 2689 4787 2484 4567 C 2269 4336 2203 3993 2316 3691 C 2410 3442 2632 3242 2888 3178 C 3020 3144 3222 3147 3345 3184 C 3600 3261 3775 3427 3860 3675 L 3879 3730 L 3602 3732 L 3325 3735 L 3322 3888 L 3319 4040 L 3891 4040 L 4463 4040 L 4457 3937 C 4435 3587 4302 3282 4065 3044 C 3872 2850 3648 2732 3355 2668 C 3272 2650 2946 2651 2855 2669 C 2750 2689 2594 2743 2499 2790 C 2230 2925 2007 3149 1881 3413 C 1797 3589 1761 3736 1753 3932 C 1739 4273 1831 4562 2035 4825 C 2395 5288 3044 5469 3559 5250 C 3638 5216 3666 5216 3700 5250 C 3726 5276 3726 5330 3700 5362 C 3676 5393 3521 5450 3380 5481 C 3272 5504 2994 5515 2898 5500 z" stroke-linecap="round" />
</g>
</g>
</g>
</svg>